<?xml version="1.0" encoding="utf-8"?>
<!-- Generator: Adobe Illustrator 14.0.0, SVG Export Plug-In . SVG Version: 6.00 Build 43363)  -->
<!DOCTYPE svg PUBLIC "-//W3C//DTD SVG 1.1//EN" "http://www.w3.org/Graphics/SVG/1.1/DTD/svg11.dtd">
<svg version="1.1" id="Ebene_1" xmlns="http://www.w3.org/2000/svg" xmlns:xlink="http://www.w3.org/1999/xlink" x="0px" y="0px"
	 width="595.279px" height="209px" viewBox="0 316.445 595.279 209" enable-background="new 0 316.445 595.279 209"
	 xml:space="preserve">
<path fill="#000000" d="M23.332,478.203c0,4.666-2.396,6.686-5.423,6.686c-0.757,0-1.262,0-1.64-0.127v-13.242
	c0.505-0.127,0.883-0.127,1.766-0.127C22.575,471.519,23.332,474.419,23.332,478.203 M30.647,477.699
	c0-8.955-5.045-11.982-12.36-11.982c-3.657,0-6.937,0.127-8.954,0.254v24.719c2.522,0.125,5.171,0.252,7.819,0.252
	C25.349,490.941,30.647,486.148,30.647,477.699"/>
<path fill="#000000" d="M45.529,466.095v1.01c2.774,0.252,3.152,0.504,3.152,4.539v12.99c0,4.037-0.252,4.289-3.278,4.541v1.01
	h10.468v-1.01c-2.775-0.252-3.153-0.504-3.153-4.541v-5.045h1.135c1.136,0,1.514,0.379,2.145,1.389
	c1.135,1.891,2.27,4.287,3.531,6.053c1.514,2.145,2.774,3.154,6.811,3.406l1.514,0.125l0.126-1.008
	c-1.136-0.252-1.64-0.883-2.522-1.766c-0.757-0.758-1.64-2.145-3.027-4.162c-1.135-1.641-2.648-4.289-3.279-5.297
	c3.027-1.135,4.919-3.279,4.919-6.432c0-2.145-1.009-3.785-2.396-4.668c-1.513-1.008-3.405-1.26-6.18-1.26h-9.963V466.095z
	 M52.718,468.871c0-1.135,0.126-1.389,1.892-1.389c2.396,0,5.045,1.389,5.045,5.172c0,1.766-0.505,3.531-2.018,4.793
	c-1.009,0.756-2.019,1.008-3.531,1.008h-1.388V468.871z"/>
<path fill="#000000" d="M83.995,466.095v1.01c2.774,0.252,3.153,0.504,3.153,4.539v12.99c0,4.037-0.253,4.289-3.531,4.541v1.01
	h18.161c0.252-1.01,1.135-4.793,1.261-6.055l-1.135-0.252c-0.631,1.766-1.262,3.027-1.892,3.783
	c-0.757,0.883-2.522,1.135-4.415,1.135c-1.513,0-2.9,0-3.531-0.504c-0.63-0.504-0.883-1.514-0.883-3.658v-6.053h3.405
	c3.153,0,3.279,0.125,3.658,3.027h1.135v-7.945h-1.135c-0.379,2.9-0.505,3.152-3.658,3.152h-3.152v-7.945
	c0-1.389,0.126-1.389,1.513-1.389h1.893c2.27,0,3.531,0.254,4.161,0.883c0.505,0.506,1.01,1.641,1.388,3.406l1.135-0.127
	c-0.252-2.27-0.378-5.045-0.504-5.674H83.995V466.095z"/>
<path fill="#000000" d="M134.316,471.644c-0.378-2.143-0.631-3.783-0.757-5.045c-0.504-0.125-1.009-0.252-1.513-0.504
	c-1.01-0.379-2.396-0.504-3.405-0.504c-5.045,0-7.946,3.152-7.946,7.063c0,3.658,3.153,5.676,5.55,6.936l1.135,0.631
	c2.901,1.514,3.91,2.9,3.91,5.045c0,2.271-1.514,4.162-3.91,4.162c-3.783,0-5.802-4.162-6.558-6.053l-1.136,0.377
	c0.379,2.271,0.757,4.793,1.136,5.803c0.504,0.125,1.135,0.504,2.144,0.756c1.009,0.379,2.271,0.631,3.783,0.631
	c5.045,0,8.45-3.152,8.45-7.566c0-3.91-2.648-5.803-5.549-7.189l-1.009-0.504c-2.901-1.262-4.414-2.648-4.414-4.793
	s1.387-3.91,3.783-3.91c3.153,0,4.288,2.648,4.919,4.793L134.316,471.644z"/>
<path fill="#000000" d="M160.171,469.753c0-1.01,0-1.641,0.252-1.766c0.253-0.127,1.136-0.379,2.396-0.379
	c5.928,0,9.963,2.775,9.963,10.721c0,6.18-3.152,10.594-9.332,10.594c-2.901,0-3.279-0.758-3.279-4.162V469.753L160.171,469.753z
	 M152.856,466.095v1.01c2.774,0.252,3.026,0.504,3.026,4.539v12.99c0,4.037-0.252,4.289-3.405,4.541v1.01h9.081
	c8.702,0,15.765-4.037,15.765-13.117c0-3.279-1.388-6.053-3.153-7.693c-2.396-2.396-6.306-3.279-10.468-3.279H152.856z"/>
<path fill="#000000" d="M195.358,466.095v1.01c2.774,0.252,3.152,0.504,3.152,4.539v12.99c0,4.037-0.252,4.289-3.531,4.541v1.01
	h18.161c0.252-1.01,1.135-4.793,1.262-6.055l-1.136-0.252c-0.631,1.766-1.261,3.027-1.892,3.783
	c-0.757,0.883-2.522,1.135-4.414,1.135c-1.514,0-2.9,0-3.531-0.504s-0.883-1.514-0.883-3.658v-6.053h3.152
	c3.153,0,3.279,0.125,3.658,3.027h1.135v-7.945h-1.135c-0.379,2.9-0.505,3.152-3.658,3.152h-3.152v-7.945
	c0-1.389,0.126-1.389,1.514-1.389h1.892c2.27,0,3.531,0.254,4.162,0.883c0.504,0.506,1.009,1.641,1.387,3.406l1.135-0.127
	c-0.252-2.27-0.378-5.045-0.504-5.674h-16.773V466.095z"/>
<path fill="#000000" d="M230.293,466.095v1.01c3.026,0.252,3.909,1.135,3.909,5.422v7.316c0,4.287-0.126,6.305-0.378,7.439
	c-0.126,1.389-1.135,1.893-3.027,1.893v1.01h9.081v-1.01c-2.396-0.127-3.405-0.631-3.657-1.893
	c-0.126-1.135-0.379-3.152-0.379-7.439v-8.072h0.126l15.387,18.791h1.766v-14.125c0-4.287,0.126-6.305,0.379-7.441
	c0.126-1.387,1.135-1.891,3.026-1.891v-1.01h-9.08v1.01c2.396,0.125,3.405,0.631,3.657,1.891c0.126,1.137,0.378,3.154,0.378,7.441
	v7.063h-0.126l-14.882-17.529h-6.18V466.095z"/>
<polygon fill="#000000" points="29.764,432.421 22.449,419.81 29.385,408.081 21.314,408.081 16.017,418.549 16.017,408.081 
	9.333,408.081 9.333,432.421 16.017,432.421 16.017,421.323 21.188,432.421 "/>
<path fill="#000000" d="M44.015,408.207v1.009c3.027,0.252,3.279,0.505,3.279,4.415v8.576c0,4.414,0.883,7.063,2.774,8.701
	c1.892,1.514,4.288,2.02,6.685,2.02c2.648,0,5.297-1.01,6.937-2.775c2.018-2.145,2.774-5.297,2.774-8.955v-2.648
	c0-4.288,0.126-6.306,0.378-7.441c0.126-1.387,1.136-1.892,3.027-1.892v-1.009h-9.333v1.009c2.396,0.126,3.405,0.631,3.657,1.892
	c0.126,1.135,0.379,3.153,0.379,7.441v2.396c0,6.558-2.271,9.962-6.685,9.962s-6.306-3.279-6.306-9.205v-7.82
	c0-4.036,0.252-4.288,3.026-4.414v-1.009H44.015V408.207z"/>
<path fill="#000000" d="M85.635,408.207v1.009c3.026,0.252,3.91,1.135,3.91,5.423v7.315c0,4.287-0.127,6.305-0.379,7.441
	c-0.126,1.387-1.135,1.891-3.026,1.891v1.01h9.08v-1.01c-2.396-0.125-3.405-0.631-3.657-1.891c-0.126-1.137-0.379-3.154-0.379-7.441
	v-8.072h0.127l15.386,18.791h1.766v-13.999c0-4.288,0.126-6.306,0.379-7.441c0.126-1.387,1.135-1.892,3.026-1.892v-1.009h-9.08
	v1.009c2.396,0.126,3.405,0.63,3.657,1.892c0.126,1.135,0.378,3.153,0.378,7.441v7.063h-0.126l-15.008-17.531H85.635z"/>
<path fill="#000000" d="M143.27,413.756c-0.378-2.144-0.63-3.784-0.756-5.045c-0.505-0.126-1.01-0.252-1.514-0.504
	c-1.009-0.378-2.396-0.504-3.405-0.504c-5.045,0-7.945,3.153-7.945,7.063c0,3.658,3.152,5.675,5.549,6.938l1.135,0.629
	c2.901,1.514,3.91,2.902,3.91,5.045c0,2.271-1.514,4.162-3.91,4.162c-3.783,0-5.801-4.162-6.558-6.053l-1.135,0.377
	c0.378,2.271,0.756,4.793,1.135,5.803c0.505,0.125,1.135,0.504,2.144,0.756c1.01,0.379,2.271,0.631,3.784,0.631
	c5.045,0,8.449-3.152,8.449-7.566c0-3.91-2.648-5.802-5.549-7.189l-1.009-0.504c-2.9-1.261-4.414-2.648-4.414-4.792
	s1.387-3.91,3.783-3.91c3.153,0,4.288,2.648,4.919,4.792L143.27,413.756z"/>
<path fill="#000000" d="M162.314,414.135c0.505-1.766,0.883-2.775,1.388-3.279c0.631-0.63,1.514-1.135,4.793-1.135h1.261v17.152
	c0,4.035-0.252,4.289-3.531,4.541v1.008h11.477v-1.008c-3.405-0.252-3.783-0.506-3.783-4.541v-17.152h1.892
	c2.271,0,3.531,0.252,4.162,0.883c0.504,0.504,1.009,1.513,1.387,3.405l1.136-0.126c-0.253-2.396-0.379-5.171-0.505-6.81h-0.631
	c-0.63,0.756-0.883,1.009-1.766,1.009h-15.386c-1.01,0-1.388-0.126-1.893-1.009h-0.63c-0.126,1.892-0.253,4.414-0.505,6.81h1.135
	V414.135z"/>
<path fill="#000000" d="M214.023,413.756c-0.378-2.144-0.631-3.784-0.757-5.045c-0.504-0.126-1.009-0.252-1.514-0.504
	c-1.009-0.378-2.396-0.504-3.404-0.504c-5.045,0-7.946,3.153-7.946,7.063c0,3.658,3.153,5.675,5.55,6.938l1.135,0.629
	c2.9,1.514,3.91,2.902,3.91,5.045c0,2.271-1.514,4.162-3.91,4.162c-3.783,0-5.802-4.162-6.559-6.053l-1.135,0.377
	c0.379,2.271,0.757,4.793,1.135,5.803c0.505,0.125,1.136,0.504,2.145,0.756c1.009,0.379,2.271,0.631,3.783,0.631
	c5.045,0,8.45-3.152,8.45-7.566c0-3.91-2.648-5.802-5.549-7.189l-1.01-0.504c-2.9-1.261-4.414-2.648-4.414-4.792
	s1.388-3.91,3.784-3.91c3.152,0,4.288,2.648,4.918,4.792L214.023,413.756z"/>
<path fill="#000000" d="M242.147,414.009L242.147,414.009l3.027,8.198h-5.928L242.147,414.009z M242.652,408.207l-7.567,19.296
	c-1.261,3.404-1.766,3.531-4.035,3.783v1.01h8.323v-1.01l-1.009-0.125c-1.64-0.127-1.892-0.631-1.261-2.65
	c0.504-1.512,1.135-3.656,1.64-4.791h6.937c0.756,1.891,1.639,4.287,2.018,5.297c0.504,1.387,0.378,1.766-1.009,2.018l-1.009,0.127
	v1.008h9.837v-1.008c-2.145-0.254-2.648-0.506-3.91-3.785c-1.387-3.783-3.026-8.323-4.666-12.863l-2.522-6.937L242.652,408.207z"/>
<path fill="#000000" d="M271.786,408.207v1.009c3.152,0.252,3.405,0.631,3.152,5.676l-0.378,7.694
	c-0.126,3.531-0.505,5.801-0.631,6.936c-0.252,1.387-1.009,1.766-2.9,1.893v1.008h8.828v-1.008
	c-2.396-0.252-3.279-0.506-3.405-1.893c-0.126-1.135-0.126-3.152-0.126-6.559l0.252-9.584h0.126l8.198,18.667h1.135l8.45-19.423
	h0.126l0.126,14.251c0,4.162-0.126,4.289-3.026,4.541v1.008h10.341v-1.008c-3.026-0.252-3.152-0.379-3.278-4.541l-0.379-12.99
	c-0.126-4.036,0.126-4.288,3.027-4.54v-1.009h-7.063l-7.441,17.657l-8.197-17.783H271.786z"/>
<path fill="#000000" d="M319.711,408.207v1.009c3.152,0.252,3.405,0.631,3.152,5.676l-0.378,7.694
	c-0.126,3.531-0.505,5.801-0.631,6.936c-0.252,1.387-1.009,1.766-2.9,1.893v1.008h8.828v-1.008
	c-2.396-0.252-3.279-0.506-3.405-1.893c-0.126-1.135-0.126-3.152-0.126-6.559l0.252-9.584h0.126l8.198,18.667h1.135l8.45-19.423
	h0.126l0.126,14.251c0,4.162-0.126,4.289-3.026,4.541v1.008h10.342v-1.008c-3.027-0.252-3.153-0.379-3.279-4.541l-0.379-12.99
	c-0.126-4.036,0.127-4.288,3.027-4.54v-1.009h-7.063l-7.441,17.657l-8.197-17.783H319.711z"/>
<path fill="#000000" d="M367.258,408.207v1.009c3.026,0.252,3.278,0.505,3.278,4.541v12.989c0,4.037-0.252,4.289-3.405,4.541v1.01
	h17.531c0.252-1.135,1.135-4.92,1.387-6.055l-1.135-0.252c-0.631,1.766-1.135,3.027-1.766,3.783
	c-0.757,0.883-2.522,1.135-4.288,1.135c-1.135,0-2.396-0.125-3.027-0.504c-0.63-0.504-0.883-1.514-0.883-3.658v-12.989
	c0-4.036,0.253-4.288,3.279-4.541v-1.009H367.258z"/>
<path fill="#000000" d="M401.94,408.207v1.009c3.026,0.252,3.278,0.505,3.278,4.415v8.576c0,4.414,0.883,7.063,2.775,8.701
	c1.892,1.514,4.287,2.02,6.684,2.02c2.648,0,5.297-1.01,6.937-2.775c2.019-2.145,2.774-5.297,2.774-8.955v-2.648
	c0-4.288,0.127-6.306,0.379-7.441c0.126-1.387,1.135-1.892,3.026-1.892v-1.009h-9.08v1.009c2.396,0.126,3.405,0.631,3.657,1.892
	c0.126,1.135,0.379,3.153,0.379,7.441v2.396c0,6.558-2.271,9.962-6.685,9.962s-6.306-3.279-6.306-9.205v-7.82
	c0-4.036,0.252-4.288,3.026-4.414v-1.009H401.94V408.207z"/>
<path fill="#000000" d="M443.559,408.207v1.009c3.026,0.252,3.909,1.135,3.909,5.423v7.315c0,4.287-0.126,6.305-0.378,7.441
	c-0.126,1.387-1.136,1.891-3.027,1.891v1.01h9.081v-1.01c-2.396-0.125-3.405-0.631-3.658-1.891
	c-0.126-1.137-0.378-3.154-0.378-7.441v-8.072h0.126l15.387,18.791h1.766v-13.999c0-4.288,0.126-6.306,0.378-7.441
	c0.127-1.387,1.136-1.892,3.027-1.892v-1.009h-9.081v1.009c2.396,0.126,3.405,0.63,3.658,1.892c0.126,1.135,0.378,3.153,0.378,7.441
	v7.063h-0.126l-14.882-17.531H443.559z"/>
<path fill="#000000" d="M508.51,425.486c0-2.648,0.127-2.775,2.145-3.027v-1.135h-10.342v1.135c3.91,0.252,4.036,0.504,4.036,3.027
	v3.152c0,1.514-0.253,2.145-1.009,2.396c-0.631,0.252-1.262,0.379-2.522,0.379c-6.811,0-9.207-5.928-9.207-11.604
	c0-6.811,3.531-10.72,8.576-10.72c3.026,0,6.18,1.009,7.188,5.675l1.135-0.126c-0.252-2.774-0.504-4.792-0.63-6.054
	c-1.388-0.252-3.91-1.009-7.189-1.009c-7.314,0-14.125,4.414-14.125,12.864c0,7.442,5.55,12.36,13.873,12.36
	c2.774,0,5.802-0.883,8.071-1.514c-0.252-0.756-0.252-2.018-0.252-3.279v-2.521H508.51z"/>
<path fill="#000000" d="M527.553,408.207v1.009c2.775,0.252,3.153,0.505,3.153,4.541v12.989c0,4.037-0.252,4.289-3.531,4.541v1.01
	h18.161c0.252-1.01,1.135-4.793,1.261-6.055l-1.135-0.252c-0.631,1.766-1.261,3.027-1.892,3.783
	c-0.757,0.883-2.522,1.135-4.414,1.135c-1.514,0-2.901,0-3.531-0.504c-0.631-0.504-0.883-1.514-0.883-3.658v-6.053h3.152
	c3.153,0,3.279,0.126,3.658,3.027h1.135v-7.82h-1.135c-0.379,2.901-0.505,3.027-3.658,3.027h-3.152v-7.946
	c0-1.387,0.126-1.387,1.513-1.387h1.893c2.27,0,3.531,0.252,4.161,0.883c0.505,0.504,1.01,1.64,1.388,3.405l1.135-0.126
	c-0.252-2.27-0.378-5.045-0.504-5.675h-16.774V408.207z"/>
<path fill="#000000" d="M562.615,408.207v1.009c3.026,0.252,3.909,1.135,3.909,5.423v7.315c0,4.287-0.126,6.305-0.378,7.441
	c-0.126,1.387-1.135,1.891-3.027,1.891v1.01h9.081v-1.01c-2.396-0.125-3.405-0.631-3.657-1.891
	c-0.126-1.137-0.379-3.154-0.379-7.441v-8.072h0.127l15.386,18.791h1.766v-13.999c0-4.288,0.126-6.306,0.379-7.441
	c0.126-1.387,1.135-1.892,3.026-1.892v-1.009h-9.08v1.009c2.396,0.126,3.405,0.63,3.657,1.892c0.126,1.135,0.378,3.153,0.378,7.441
	v7.063h-0.126l-14.882-17.531H562.615z"/>
<path fill="#000000" d="M25.602,366.714c0-7.819-9.333-6.684-9.333-9.837c0-1.009,0.883-1.766,2.774-1.766
	c1.514,0,3.027,0.252,4.414,0.63l0.379-6.054c-1.514-0.252-3.279-0.378-4.541-0.378c-6.684,0-10.468,3.153-10.468,8.198
	c0,8.576,9.333,6.432,9.333,10.089c0,1.135-1.135,1.892-2.774,1.892c-1.892,0-4.036-0.378-5.297-0.883l-0.379,6.306
	c1.64,0.504,3.405,0.631,5.045,0.631C21.566,375.542,25.602,371.759,25.602,366.714"/>
<path fill="#000000" d="M45.655,356.246c0.504-1.766,0.883-2.774,1.387-3.279c0.631-0.631,1.514-1.135,4.793-1.135h1.261v17.152
	c0,4.036-0.252,4.288-3.531,4.54v1.009h11.478v-1.009c-3.405-0.252-3.784-0.504-3.784-4.54v-17.152h1.892
	c2.271,0,3.532,0.252,4.162,0.883c0.505,0.504,1.009,1.514,1.388,3.405l1.135-0.126c-0.252-2.396-0.378-5.171-0.504-6.811h-0.631
	c-0.631,0.883-0.883,1.135-1.766,1.135H47.547c-1.009,0-1.388-0.126-1.892-1.009h-0.631c-0.126,1.892-0.252,4.414-0.504,6.811h1.135
	V356.246z"/>
<path fill="#000000" d="M92.319,355.994L92.319,355.994l3.026,8.198h-5.928L92.319,355.994z M92.949,350.319l-7.566,19.296
	c-1.262,3.405-1.766,3.531-4.036,3.784v1.009h8.324v-1.009l-1.01-0.126c-1.639-0.126-1.892-0.631-1.261-2.649
	c0.505-1.513,1.135-3.657,1.64-4.792h6.811c0.757,1.892,1.64,4.288,2.018,5.297c0.505,1.387,0.379,1.766-1.009,2.018l-1.009,0.252
	v1.009h9.837v-1.009c-2.144-0.252-2.648-0.504-3.909-3.784c-1.388-3.784-3.027-8.324-4.793-12.864l-2.522-6.937L92.949,350.319z"/>
<path fill="#000000" d="M131.542,355.994L131.542,355.994l3.026,8.198h-5.927L131.542,355.994z M132.047,350.319l-7.567,19.296
	c-1.262,3.405-1.766,3.531-4.036,3.784v1.009h8.324v-1.009l-1.009-0.126c-1.64-0.126-1.893-0.631-1.262-2.649
	c0.505-1.513,1.135-3.657,1.64-4.792h6.937c0.757,1.892,1.64,4.288,2.018,5.297c0.505,1.387,0.379,1.766-1.009,2.018l-1.009,0.126
	v1.009h9.837v-1.009c-2.144-0.252-2.648-0.505-3.909-3.784c-1.388-3.784-3.027-8.324-4.793-12.864l-2.522-6.937L132.047,350.319z"/>
<path fill="#000000" d="M161.684,356.246c0.504-1.766,0.883-2.774,1.387-3.279c0.631-0.631,1.514-1.135,4.793-1.135h1.261v17.152
	c0,4.036-0.252,4.288-3.531,4.54v1.009h11.477v-1.009c-3.404-0.252-3.783-0.504-3.783-4.54v-17.152h1.892
	c2.271,0,3.531,0.252,4.162,0.883c0.505,0.504,1.009,1.514,1.388,3.405l1.135-0.126c-0.252-2.396-0.378-5.171-0.505-6.811h-0.63
	c-0.631,0.757-0.883,1.009-1.766,1.009h-15.387c-1.009,0-1.388-0.126-1.892-1.009h-0.631c-0.126,1.892-0.252,4.414-0.505,6.811
	h1.136V356.246z"/>
<path fill="#000000" d="M198.636,350.319v1.009c3.027,0.252,3.279,0.504,3.279,4.54v12.99c0,4.036-0.252,4.288-3.405,4.541v1.009
	h17.404c0.253-1.135,1.136-4.918,1.388-6.054l-1.135-0.252c-0.631,1.766-1.136,3.027-1.766,3.783
	c-0.757,0.883-2.522,1.135-4.288,1.135c-1.136,0-2.396-0.126-3.027-0.504c-0.631-0.504-0.883-1.514-0.883-3.658v-12.99
	c0-4.036,0.252-4.288,3.279-4.54v-1.009H198.636z"/>
<path fill="#000000" d="M233.698,350.319v1.009c2.9,0.252,3.152,0.504,3.152,4.54v12.99c0,4.036-0.252,4.288-3.152,4.541v1.009
	h10.468v-1.009c-2.774-0.252-3.153-0.504-3.153-4.541v-12.99c0-4.036,0.252-4.288,3.153-4.54v-1.009H233.698z"/>
<path fill="#000000" d="M283.64,356.625c-0.252-2.144-0.378-3.784-0.63-5.928c-1.01-0.252-3.531-1.009-6.685-1.009
	c-8.324,0-14.378,5.297-14.378,13.116c0,5.928,3.91,12.234,13.747,12.234c2.648,0,5.928-0.757,6.937-1.135
	c0.631-1.387,1.388-4.414,1.892-6.18l-1.009-0.252c-1.892,3.91-3.783,6.054-7.819,6.054c-5.423,0-8.828-4.792-8.828-11.729
	c0-5.549,2.774-10.594,8.828-10.594c3.405,0,5.802,1.261,6.937,5.549L283.64,356.625z"/>
<path fill="#000000" d="M300.919,350.319v1.009c3.153,0.252,3.405,0.504,3.405,4.54v12.99c0,4.036-0.252,4.288-3.279,4.541v1.009
	h10.594v-1.009c-2.9-0.252-3.152-0.504-3.152-4.541v-6.306h11.351v6.306c0,4.036-0.252,4.288-3.405,4.541v1.009h10.846v-1.009
	c-2.9-0.252-3.152-0.504-3.152-4.541v-12.99c0-4.036,0.252-4.288,3.279-4.54v-1.009h-10.595v1.009
	c2.775,0.252,3.153,0.504,3.153,4.54v5.045h-11.351v-5.045c0-4.036,0.252-4.288,3.026-4.54v-1.009H300.919z"/>
<path fill="#000000" d="M344.808,350.319v1.009c2.774,0.252,3.152,0.504,3.152,4.54v12.99c0,4.036-0.252,4.288-3.531,4.541v1.009
	h18.161c0.252-1.009,1.135-4.792,1.262-6.054l-1.136-0.252c-0.63,1.766-1.261,3.027-1.892,3.783
	c-0.757,0.883-2.522,1.135-4.414,1.135c-1.514,0-2.9,0-3.531-0.504s-0.883-1.514-0.883-3.658v-6.054h3.153
	c3.152,0,3.278,0.126,3.657,3.027h1.135v-7.945h-1.135c-0.379,2.901-0.505,3.153-3.657,3.153h-3.153v-7.945
	c0-1.387,0.126-1.387,1.514-1.387h1.892c2.27,0,3.531,0.252,4.162,0.883c0.504,0.504,1.009,1.64,1.387,3.405l1.136-0.126
	c-0.253-2.27-0.379-5.044-0.505-5.675h-16.773V350.319z"/>
</svg>
